{
	"accessors": [
		{
			"bufferView": 0,
			"byteOffset": 0,
			"componentType": 5126,
			"count": 24,
			"max": [
				1.0,
				1.0,
				1.0
			],
			"min": [
				-1.0,
				-1.0,
				-1.0
			],
			"type": "VEC3"
		},
		{
			"bufferView": 1,
			"byteOffset": 0,
			"componentType": 5123,
			"count": 36,
			"type": "SCALAR"
		}
	],
    "asset" : {
        "generator" : "pixel2gltf2 by UX3D",
        "version" : "2.0"
    },
	"bufferViews": [
		{
			"buffer": 0,
			"byteLength": 288,
			"byteOffset": 0
		},
		{
			"buffer": 0,
			"byteLength": 72,
			"byteOffset": 288
		}
	],
	"buffers": [
		{
			"byteLength": 360,
			"uri": "data:application/octet-stream;base64,"
		}
	],
	"extensionsUsed": [
		"KHR_materials_unlit"
	],
    "materials" : [
		{
			"extensions": {
				"KHR_materials_unlit": {
				}
			},
			"pbrMetallicRoughness": {
				"baseColorFactor": [
					1.0,
					1.0,
					1.0,
					1.0				
				]
			}
		}
    ],
	"meshes": [
		{
			"primitives": [
				{
					"attributes": {
						"POSITION": 0
					},
					"indices": 1,
					"material": 0,
					"mode": 4
				}
			]
		}
	],
	"nodes": [
		{
		}
	],
	"scene": 0,
	"scenes": [
		{
			"nodes": [
				0
			]
		}
	]
}
